<svg width="520" height="109" viewBox="0 0 520 109" fill="none" xmlns="http://www.w3.org/2000/svg">
<rect width="520" height="109" rx="16" fill="#396DF1"/>
<path d="M93.472 64.56H78.88L76.192 72H71.584L83.68 38.736H88.72L100.768 72H96.16L93.472 64.56ZM92.224 61.008L86.176 44.112L80.128 61.008H92.224ZM129.368 45.696V72H125V68.112C124.168 69.456 123 70.512 121.496 71.28C120.024 72.016 118.392 72.384 116.6 72.384C114.552 72.384 112.712 71.968 111.08 71.136C109.448 70.272 108.152 68.992 107.192 67.296C106.264 65.6 105.8 63.536 105.8 61.104V45.696H110.12V60.528C110.12 63.12 110.776 65.12 112.088 66.528C113.4 67.904 115.192 68.592 117.464 68.592C119.8 68.592 121.64 67.872 122.984 66.432C124.328 64.992 125 62.896 125 60.144V45.696H129.368ZM142.071 49.296V64.8C142.071 66.08 142.343 66.992 142.887 67.536C143.431 68.048 144.375 68.304 145.719 68.304H148.935V72H144.999C142.567 72 140.743 71.44 139.527 70.32C138.311 69.2 137.703 67.36 137.703 64.8V49.296H134.295V45.696H137.703V39.072H142.071V45.696H148.935V49.296H142.071ZM165.699 72.432C163.235 72.432 160.995 71.872 158.979 70.752C156.995 69.632 155.427 68.048 154.275 66C153.155 63.92 152.595 61.52 152.595 58.8C152.595 56.112 153.171 53.744 154.323 51.696C155.507 49.616 157.107 48.032 159.123 46.944C161.139 45.824 163.395 45.264 165.891 45.264C168.387 45.264 170.643 45.824 172.659 46.944C174.675 48.032 176.259 49.6 177.411 51.648C178.595 53.696 179.187 56.08 179.187 58.8C179.187 61.52 178.579 63.92 177.363 66C176.179 68.048 174.563 69.632 172.515 70.752C170.467 71.872 168.195 72.432 165.699 72.432ZM165.699 68.592C167.267 68.592 168.739 68.224 170.115 67.488C171.491 66.752 172.595 65.648 173.427 64.176C174.291 62.704 174.723 60.912 174.723 58.8C174.723 56.688 174.307 54.896 173.475 53.424C172.643 51.952 171.555 50.864 170.211 50.16C168.867 49.424 167.411 49.056 165.843 49.056C164.243 49.056 162.771 49.424 161.427 50.16C160.115 50.864 159.059 51.952 158.259 53.424C157.459 54.896 157.059 56.688 157.059 58.8C157.059 60.944 157.443 62.752 158.211 64.224C159.011 65.696 160.067 66.8 161.379 67.536C162.691 68.24 164.131 68.592 165.699 68.592ZM165.939 38.928L159.267 43.008V39.552L165.939 35.568L172.563 39.552V43.008L165.939 38.928ZM216.562 45.216C218.61 45.216 220.434 45.648 222.034 46.512C223.634 47.344 224.898 48.608 225.826 50.304C226.754 52 227.218 54.064 227.218 56.496V72H222.898V57.12C222.898 54.496 222.242 52.496 220.93 51.12C219.65 49.712 217.906 49.008 215.698 49.008C213.426 49.008 211.618 49.744 210.274 51.216C208.93 52.656 208.258 54.752 208.258 57.504V72H203.938V57.12C203.938 54.496 203.282 52.496 201.97 51.12C200.69 49.712 198.946 49.008 196.738 49.008C194.466 49.008 192.658 49.744 191.314 51.216C189.97 52.656 189.298 54.752 189.298 57.504V72H184.93V45.696H189.298V49.488C190.162 48.112 191.314 47.056 192.754 46.32C194.226 45.584 195.842 45.216 197.602 45.216C199.81 45.216 201.762 45.712 203.458 46.704C205.154 47.696 206.418 49.152 207.25 51.072C207.986 49.216 209.202 47.776 210.898 46.752C212.594 45.728 214.482 45.216 216.562 45.216ZM232.752 58.752C232.752 56.064 233.296 53.712 234.384 51.696C235.472 49.648 236.96 48.064 238.848 46.944C240.768 45.824 242.896 45.264 245.232 45.264C247.536 45.264 249.536 45.76 251.232 46.752C252.928 47.744 254.192 48.992 255.024 50.496V45.696H259.44V72H255.024V67.104C254.16 68.64 252.864 69.92 251.136 70.944C249.44 71.936 247.456 72.432 245.184 72.432C242.848 72.432 240.736 71.856 238.848 70.704C236.96 69.552 235.472 67.936 234.384 65.856C233.296 63.776 232.752 61.408 232.752 58.752ZM255.024 58.8C255.024 56.816 254.624 55.088 253.824 53.616C253.024 52.144 251.936 51.024 250.56 50.256C249.216 49.456 247.728 49.056 246.096 49.056C244.464 49.056 242.976 49.44 241.632 50.208C240.288 50.976 239.216 52.096 238.416 53.568C237.616 55.04 237.216 56.768 237.216 58.752C237.216 60.768 237.616 62.528 238.416 64.032C239.216 65.504 240.288 66.64 241.632 67.44C242.976 68.208 244.464 68.592 246.096 68.592C247.728 68.592 249.216 68.208 250.56 67.44C251.936 66.64 253.024 65.504 253.824 64.032C254.624 62.528 255.024 60.784 255.024 58.8ZM272.149 49.296V64.8C272.149 66.08 272.421 66.992 272.965 67.536C273.509 68.048 274.453 68.304 275.797 68.304H279.013V72H275.077C272.645 72 270.821 71.44 269.605 70.32C268.389 69.2 267.781 67.36 267.781 64.8V49.296H264.373V45.696H267.781V39.072H272.149V45.696H279.013V49.296H272.149ZM295.777 72.432C293.313 72.432 291.073 71.872 289.057 70.752C287.073 69.632 285.505 68.048 284.353 66C283.233 63.92 282.673 61.52 282.673 58.8C282.673 56.112 283.249 53.744 284.401 51.696C285.585 49.616 287.185 48.032 289.201 46.944C291.217 45.824 293.473 45.264 295.969 45.264C298.465 45.264 300.721 45.824 302.737 46.944C304.753 48.032 306.337 49.6 307.489 51.648C308.673 53.696 309.265 56.08 309.265 58.8C309.265 61.52 308.657 63.92 307.441 66C306.257 68.048 304.641 69.632 302.593 70.752C300.545 71.872 298.273 72.432 295.777 72.432ZM295.777 68.592C297.345 68.592 298.817 68.224 300.193 67.488C301.569 66.752 302.673 65.648 303.505 64.176C304.369 62.704 304.801 60.912 304.801 58.8C304.801 56.688 304.385 54.896 303.553 53.424C302.721 51.952 301.633 50.864 300.289 50.16C298.945 49.424 297.489 49.056 295.921 49.056C294.321 49.056 292.849 49.424 291.505 50.16C290.193 50.864 289.137 51.952 288.337 53.424C287.537 54.896 287.137 56.688 287.137 58.8C287.137 60.944 287.521 62.752 288.289 64.224C289.089 65.696 290.145 66.8 291.457 67.536C292.769 68.24 294.209 68.592 295.777 68.592ZM346.717 38.544V42.096H332.173V53.376H343.981V56.928H332.173V72H327.805V38.544H346.717ZM354.249 41.424C353.417 41.424 352.713 41.136 352.137 40.56C351.561 39.984 351.273 39.28 351.273 38.448C351.273 37.616 351.561 36.912 352.137 36.336C352.713 35.76 353.417 35.472 354.249 35.472C355.049 35.472 355.721 35.76 356.265 36.336C356.841 36.912 357.129 37.616 357.129 38.448C357.129 39.28 356.841 39.984 356.265 40.56C355.721 41.136 355.049 41.424 354.249 41.424ZM356.361 45.696V72H351.993V45.696H356.361ZM376.621 45.216C379.821 45.216 382.413 46.192 384.397 48.144C386.381 50.064 387.373 52.848 387.373 56.496V72H383.053V57.12C383.053 54.496 382.397 52.496 381.085 51.12C379.773 49.712 377.981 49.008 375.709 49.008C373.405 49.008 371.565 49.728 370.189 51.168C368.845 52.608 368.173 54.704 368.173 57.456V72H363.805V45.696H368.173V49.44C369.037 48.096 370.205 47.056 371.677 46.32C373.181 45.584 374.829 45.216 376.621 45.216ZM396.765 41.424C395.933 41.424 395.229 41.136 394.653 40.56C394.077 39.984 393.789 39.28 393.789 38.448C393.789 37.616 394.077 36.912 394.653 36.336C395.229 35.76 395.933 35.472 396.765 35.472C397.565 35.472 398.237 35.76 398.781 36.336C399.357 36.912 399.645 37.616 399.645 38.448C399.645 39.28 399.357 39.984 398.781 40.56C398.237 41.136 397.565 41.424 396.765 41.424ZM398.877 45.696V72H394.509V45.696H398.877ZM411.649 49.296V64.8C411.649 66.08 411.921 66.992 412.465 67.536C413.009 68.048 413.953 68.304 415.297 68.304H418.513V72H414.577C412.145 72 410.321 71.44 409.105 70.32C407.889 69.2 407.281 67.36 407.281 64.8V49.296H403.873V45.696H407.281V39.072H411.649V45.696H418.513V49.296H411.649ZM435.277 72.432C432.813 72.432 430.573 71.872 428.557 70.752C426.573 69.632 425.005 68.048 423.853 66C422.733 63.92 422.173 61.52 422.173 58.8C422.173 56.112 422.749 53.744 423.901 51.696C425.085 49.616 426.685 48.032 428.701 46.944C430.717 45.824 432.973 45.264 435.469 45.264C437.965 45.264 440.221 45.824 442.237 46.944C444.253 48.032 445.837 49.6 446.989 51.648C448.173 53.696 448.765 56.08 448.765 58.8C448.765 61.52 448.157 63.92 446.941 66C445.757 68.048 444.141 69.632 442.093 70.752C440.045 71.872 437.773 72.432 435.277 72.432ZM435.277 68.592C436.845 68.592 438.317 68.224 439.693 67.488C441.069 66.752 442.173 65.648 443.005 64.176C443.869 62.704 444.301 60.912 444.301 58.8C444.301 56.688 443.885 54.896 443.053 53.424C442.221 51.952 441.133 50.864 439.789 50.16C438.445 49.424 436.989 49.056 435.421 49.056C433.821 49.056 432.349 49.424 431.005 50.16C429.693 50.864 428.637 51.952 427.837 53.424C427.037 54.896 426.637 56.688 426.637 58.8C426.637 60.944 427.021 62.752 427.789 64.224C428.589 65.696 429.645 66.8 430.957 67.536C432.269 68.24 433.709 68.592 435.277 68.592Z" fill="white"/>
</svg>
